<svg width="34" height="34" viewBox="0 0 34 34" fill="none" xmlns="http://www.w3.org/2000/svg">
<path opacity="0.2" d="M23.9627 6.13923L20.2838 9.82146L24.2947 13.8291L24.0291 14.5463C23.2304 16.7211 21.9682 18.6963 20.3302 20.3348C18.6922 21.9734 16.7175 23.2362 14.543 24.0357L13.8258 24.3013L13.7959 24.2715L9.81816 20.2871L6.13926 23.9693L9.60898 27.439C9.96758 27.7943 10.4723 27.9603 10.9637 27.8773C14.8783 27.2299 18.7797 25.1248 21.9506 21.9539C25.1215 18.783 27.2266 14.8783 27.874 10.9636C27.957 10.4722 27.791 9.96755 27.4324 9.60896L23.9627 6.13923Z" fill="#F4814D"/>
<path d="M29.1225 7.92559L25.5863 4.39277C25.1547 3.96113 24.577 3.71875 23.966 3.71875C23.3551 3.71875 22.7773 3.95781 22.3457 4.39277L18.5373 8.19453C18.1057 8.62617 17.8633 9.20723 17.8633 9.81816C17.8633 10.4324 18.1023 11.0068 18.5373 11.4418L21.5123 14.4201C20.8346 15.9992 19.8608 17.434 18.6436 18.6469C17.425 19.8721 16.0006 20.8383 14.4201 21.5223L11.4451 18.5439C11.0135 18.1123 10.4357 17.8699 9.8248 17.8699C9.52346 17.8688 9.22493 17.9278 8.9467 18.0436C8.66847 18.1593 8.41614 18.3294 8.20449 18.5439L4.39277 22.3457C3.96113 22.7773 3.71875 23.3584 3.71875 23.9693C3.71875 24.5836 3.95781 25.158 4.39277 25.593L7.92559 29.1258C8.6627 29.8629 9.67871 30.2846 10.7213 30.2846C10.9371 30.2846 11.1463 30.268 11.3588 30.2314C15.7549 29.5076 20.1178 27.1668 23.6406 23.6473C27.1602 20.1211 29.4977 15.7582 30.2281 11.3588C30.4373 10.1104 30.0189 8.82539 29.1225 7.92559ZM27.874 10.9637C27.2266 14.8783 25.1215 18.783 21.9506 21.9539C18.7797 25.1248 14.8783 27.2299 10.9637 27.8773C10.4723 27.9604 9.96758 27.7943 9.60898 27.4391L6.13926 23.9693L9.81816 20.2871L13.7959 24.2715L13.8258 24.3014L14.543 24.0357C16.7175 23.2362 18.6922 21.9734 20.3302 20.3349C21.9682 18.6963 23.2304 16.7211 24.0291 14.5463L24.2947 13.8291L20.2838 9.82148L23.9627 6.13926L27.4324 9.60898C27.791 9.96758 27.957 10.4723 27.874 10.9637Z" fill="#F4814D"/>
</svg>
