<svg width="201" height="402" viewBox="0 0 201 402" fill="none" xmlns="http://www.w3.org/2000/svg">
<path fill-rule="evenodd" clip-rule="evenodd" d="M67.5 76.7689C73.5008 80.388 79.3968 82.1367 82.1645 81.4228C89.1046 79.6328 89.7426 54.2286 84.3728 44.2135C79.0029 34.1984 51.3973 29.8332 50.0059 49.6763C49.523 56.5632 52.413 62.7094 56.683 67.7246L49.0266 103.432H71.2666L67.5 76.7689Z" fill="#B28B67"/>
<path fill-rule="evenodd" clip-rule="evenodd" d="M71.6966 32.6706C68.7654 32.1896 60.8731 31.859 59.4176 31.8592C58.4875 31.8592 57.4795 32.0718 56.9286 31.2172C56.4775 30.5174 56.6428 29.3339 56.5081 28.5218C56.3518 27.5785 56.1298 26.6473 55.9052 25.7184C55.266 23.0753 54.2995 20.5607 52.9472 18.1998C50.4097 13.7705 46.6924 10.301 41.9995 8.28216C36.8171 6.053 30.9529 5.54256 25.3786 5.99472C19.4133 6.47846 14.0133 8.44889 8.38114 10.3032C3.01396 12.0702 -2.6076 12.7657 -8.22108 11.9028C-13.8769 11.0335 -18.1504 7.96621 -22.9209 5.05498C-27.8047 2.07457 -33.3858 0.125281 -39.1593 0.573377C-44.5485 0.991799 -49.5156 3.2184 -53.9721 6.19283C-58.1415 8.97576 -61.5819 12.324 -63.5242 17.0364C-65.6138 22.1055 -65.6119 27.6696 -62.1758 32.1495C-57.1953 38.6432 -47.9491 40.3224 -40.2568 40.1555C-35.8074 40.0592 -31.4375 39.2465 -27.2368 37.7681C-21.6346 35.7964 -16.7934 32.4546 -11.5523 29.7432C-9.09271 28.4708 -6.55035 27.4258 -3.88548 26.6731C-1.29951 25.9423 1.24752 25.6072 3.58888 27.1703C6.06573 28.8239 8.28522 30.4483 11.1188 31.4834C13.837 32.4766 16.7163 33.032 19.6124 33.0096C25.2471 32.9661 30.8017 31.2093 36.2743 30.0326C40.7371 29.0732 45.5122 28.1171 50.062 29.0393C51.9605 29.4242 54.7336 30.2188 55.4194 32.1931C43.8783 34.286 39.3455 48.5679 42.5991 59.0521C44.3551 64.7108 54.9108 71.3258 59.015 68.351C61.6151 66.4663 60.0366 63.9921 59.015 62.3587C57.0586 59.2308 56.3893 55.2129 60.0093 53.0352C63.1319 51.157 66.4151 55.6172 66.4772 55.6123C67.3355 55.5446 74.7513 51.3481 79.8607 45.2243C84.9011 45.5232 85.6658 42.1977 84.4623 39.478C83.2587 36.7583 75.7465 33.3356 71.6966 32.6706Z" fill="#191847"/>
<path fill-rule="evenodd" clip-rule="evenodd" d="M31.0901 180.392C32.761 203.211 140.402 270.392 141.03 272.277C141.449 273.534 107.525 351.724 107.525 351.724L116.935 355.382C116.935 355.382 168.968 272.574 166.295 263.75C162.469 251.117 82.7777 180.635 82.7777 180.635L31.0901 180.392Z" fill="#B28B67"/>
<path fill-rule="evenodd" clip-rule="evenodd" d="M110.002 339.951L125.364 345.547C157.758 308.975 170.456 278.799 168.14 263.425C165.825 248.05 84.9111 180.448 84.9111 180.448L29.9884 180.448C31.8624 233.293 131.632 272.478 132.967 274.73C134.301 276.982 121.168 299.037 110.002 339.951Z" fill="#2F3676"/>
<path fill-rule="evenodd" clip-rule="evenodd" d="M106.948 349.943C106.099 349.136 104.738 349.146 103.989 350.047C102.726 351.565 101.001 353.795 100.477 355.235C99.6201 357.592 98.7602 362.399 98.7602 362.399C101.493 363.395 147.874 380.286 147.874 380.286C147.874 380.286 152.092 374.651 148.151 372.643C144.21 370.636 141.63 369.236 141.63 369.236L122.56 350.792C122.155 350.4 121.507 350.42 121.127 350.836L118.415 353.808C118.415 353.808 113.948 354.2 111.561 353.33C110.15 352.817 108.259 351.188 106.948 349.943Z" fill="#E4E4E4"/>
<path fill-rule="evenodd" clip-rule="evenodd" d="M43.4666 180.392L-4.48465 295.579L-51.6133 392.96H-40.4941L81.1576 180.392H43.4666Z" fill="#997659"/>
<path fill-rule="evenodd" clip-rule="evenodd" d="M-49.562 387.493C-50.6359 387.025 -51.9108 387.5 -52.3069 388.603C-52.975 390.462 -53.8333 393.148 -53.8333 394.68C-53.8333 397.188 -52.9981 402 -52.9981 402C-50.0903 402 -0.732426 402 -0.732426 402C-0.732426 402 1.30488 395.261 -3.08452 394.723C-7.47391 394.186 -10.3772 393.753 -10.3772 393.753L-34.6006 382.947C-35.1152 382.718 -35.7179 382.959 -35.9326 383.48L-37.4653 387.2C-37.4653 387.2 -41.5288 389.097 -44.0693 389.097C-45.5707 389.097 -47.9043 388.215 -49.562 387.493Z" fill="#E4E4E4"/>
<path fill-rule="evenodd" clip-rule="evenodd" d="M-47.3572 372.73L-22.6503 377.366C-3.54694 349.264 76.4012 234.034 85.1668 180.392H30.1636C0.890965 219.17 -29.1478 344.163 -47.3572 372.73Z" fill="#5C63AB"/>
<path fill-rule="evenodd" clip-rule="evenodd" d="M160.444 140.247L126.867 155.002L137.588 168.745L162.736 149.453C175.296 147.144 181.122 145.161 180.212 143.503C179.444 142.105 178.016 142.027 176.701 141.954C175.676 141.898 174.72 141.845 174.197 141.175C173.004 139.646 175.949 134.922 178.934 130.558C181.92 126.195 179.122 126.352 177.484 126.874C172.006 129.924 166.326 134.382 160.444 140.247ZM10.1067 162.836L-8.88234 159.066C-21.7606 193.03 -29.4383 211.642 -31.9155 214.902C-33.732 217.292 -44.9349 223.45 -52.5176 226.738C-55.5613 228.058 -54.9078 230.632 -54.0151 231.455C-48.3843 236.649 -43.1496 234.828 -37.4514 232.847C-35.8018 232.273 -34.1133 231.686 -32.3651 231.252C-27.8402 230.127 -26.4632 232.456 -25.1619 234.656C-24.0098 236.604 -22.9169 238.452 -19.7512 237.714C-19.8952 237.093 -20.0721 236.396 -20.263 235.645C-21.4971 230.786 -23.3171 223.62 -20.6169 219.456C-19.2312 217.32 -8.99001 198.446 10.1067 162.836Z" fill="#B28B67"/>
<path fill-rule="evenodd" clip-rule="evenodd" d="M61.7175 87.9768L69.7305 86.6016C87.1836 103.542 94.3059 144.242 105.937 149.629C116.934 154.722 132.523 149.793 151.053 143.138L156.727 155.825C139.891 174.05 104.024 189.448 89.4852 180.658C66.241 166.604 60.8749 116.407 61.7175 87.9768Z" fill="#DB2721"/>
<path fill-rule="evenodd" clip-rule="evenodd" d="M26.7866 188.737C26.7866 188.737 74.9804 188.737 97.6872 188.737C100.927 188.737 100.317 184.056 99.8482 181.694C94.4431 154.433 73.3436 125.047 73.3436 86.2417L52.8925 83.0328C35.9768 110.255 30.1271 143.771 26.7866 188.737Z" fill="#DDE3E9"/>
<path fill-rule="evenodd" clip-rule="evenodd" d="M51.8067 83.0328H51.5733C5.70193 111.317 -22.0202 155.163 -31.5933 214.569L-16.7319 217.481C-6.88745 206.005 5.26155 187.224 19.7151 161.136C15.2807 176.851 12.0431 192.968 11.0334 208.209H74.8551C87.2102 176.966 59.6708 83.0328 59.6708 83.0328H55.2646H51.8067Z" fill="#FF4133"/>
</svg>
